<?xml version="1.0" standalone="no"?>
<!DOCTYPE svg PUBLIC "-//W3C//DTD SVG 20010904//EN"
 "http://www.w3.org/TR/2001/REC-SVG-20010904/DTD/svg10.dtd">
<svg version="1.0" xmlns="http://www.w3.org/2000/svg"
 width="1200.000000pt" height="1200.000000pt" viewBox="0 0 1200.000000 1200.000000"
 preserveAspectRatio="xMidYMid meet">
<metadata>
Created by potrace 1.11, written by Peter Selinger 2001-2013
</metadata>
<g transform="translate(0.000000,1200.000000) scale(0.100000,-0.100000)"
fill="#000000" stroke="none">
<path d="M6385 10975 c-38 -7 -79 -14 -90 -14 -15 -1 -17 -3 -6 -10 9 -6 5
-10 -15 -14 -74 -13 -134 -40 -172 -74 -13 -12 -27 -21 -31 -20 -9 3 -52 -29
-46 -35 3 -3 -11 -13 -30 -24 -19 -10 -38 -26 -41 -36 -3 -10 -18 -27 -34 -38
-16 -12 -37 -37 -46 -56 -9 -18 -20 -34 -24 -34 -14 0 -99 -188 -107 -237 -4
-24 -10 -32 -20 -29 -8 4 -17 6 -19 6 -3 0 -2 6 2 13 4 6 4 9 -1 5 -4 -4 -24
4 -44 17 -19 14 -41 25 -47 25 -17 0 -65 26 -59 32 3 2 -1 5 -7 6 -7 0 -44 11
-83 24 -69 22 -77 22 -575 23 -493 0 -507 -1 -590 -23 -47 -12 -86 -27 -88
-32 -2 -6 -8 -10 -13 -10 -21 0 -126 -58 -159 -88 -19 -18 -39 -32 -45 -32 -5
0 -19 -14 -30 -30 -11 -16 -25 -30 -32 -30 -6 0 -20 -15 -32 -32 -11 -18 -26
-42 -33 -53 -7 -11 -15 -22 -18 -25 -14 -12 -51 -70 -45 -70 3 0 -2 -12 -13
-27 -17 -26 -55 -111 -53 -123 0 -3 -2 -14 -4 -25 -3 -11 -8 -33 -11 -50 -4
-16 -9 -160 -11 -320 -3 -159 -6 -291 -8 -293 -2 -2 -29 11 -61 28 -74 40
-169 68 -256 76 -45 5 -65 11 -61 18 3 6 0 5 -8 -1 -14 -14 -33 -18 -25 -5 2
4 -11 8 -29 8 -18 0 -31 -4 -29 -8 3 -4 -2 -8 -11 -8 -9 0 -14 4 -11 8 3 5 -1
9 -9 9 -8 0 -12 -4 -9 -9 3 -4 0 -8 -5 -8 -6 0 -11 6 -11 13 0 8 -4 7 -10 -3
-9 -13 -11 -13 -20 0 -9 13 -10 13 -10 0 0 -13 -1 -13 -10 0 -6 10 -10 11 -10
3 0 -7 -5 -13 -11 -13 -5 0 -8 4 -5 9 7 10 -20 9 -30 -2 -10 -10 -26 -9 -20 1
6 11 -31 8 -58 -3 -10 -4 -21 -4 -25 1 -9 13 -34 17 -26 4 3 -5 2 -10 -4 -10
-5 0 -12 6 -14 13 -4 10 -6 10 -6 0 -1 -7 -6 -13 -12 -13 -5 0 -7 6 -3 13 5 7
1 7 -10 -2 -15 -13 -19 -13 -27 0 -6 10 -9 10 -9 2 0 -7 -5 -13 -11 -13 -5 0
-7 6 -3 13 6 10 4 10 -7 0 -14 -14 -33 -18 -25 -5 2 4 -11 8 -29 8 -18 0 -31
-4 -29 -8 3 -4 -2 -8 -11 -8 -9 0 -14 4 -11 9 6 9 -7 9 -34 -2 -8 -3 -42 -8
-75 -12 -64 -6 -218 -45 -211 -53 3 -2 -22 -18 -55 -34 -33 -17 -74 -43 -92
-59 -17 -16 -40 -32 -49 -35 -10 -3 -18 -9 -18 -13 0 -12 -50 -68 -50 -56 0
11 -47 -61 -56 -87 -3 -10 -10 -16 -14 -13 -9 5 -60 -108 -60 -133 0 -13 -2
-14 -9 -4 -8 13 -37 -101 -46 -183 -20 -190 -27 -240 -34 -245 -3 -3 -7 -14
-8 -25 -2 -24 -11 -95 -23 -195 -15 -118 -19 -159 -26 -250 -3 -47 -10 -89
-14 -95 -5 -5 -11 -50 -15 -100 -4 -49 -9 -106 -10 -125 -2 -19 -7 -80 -10
-135 -4 -55 -8 -116 -10 -135 -2 -19 -7 -96 -11 -170 -4 -74 -8 -155 -9 -180
-2 -25 -3 -76 -4 -113 -1 -51 -4 -66 -14 -61 -9 6 -9 4 1 -7 13 -15 17 -43 4
-35 -5 3 -9 -1 -9 -9 0 -8 4 -12 9 -9 4 3 8 0 8 -5 0 -6 -5 -11 -12 -11 -9 0
-9 -3 0 -12 7 -7 12 -17 12 -22 0 -6 -4 -5 -9 3 -10 15 -13 -110 -13 -499 0
-425 1 -462 15 -454 9 6 10 4 0 -7 -7 -7 -13 -27 -13 -43 0 -24 3 -27 10 -16
5 8 10 10 10 5 0 -6 -5 -16 -12 -23 -9 -9 -9 -12 0 -12 7 0 12 -7 12 -16 0 -8
-4 -12 -10 -9 -5 3 -10 1 -10 -4 0 -6 4 -11 9 -11 4 0 9 -35 10 -77 1 -43 4
-98 6 -123 1 -25 6 -94 10 -155 4 -60 8 -123 10 -140 1 -16 5 -77 9 -135 4
-58 9 -112 11 -120 6 -25 18 -143 16 -170 0 -15 2 -20 7 -13 4 7 13 -38 20
-100 7 -62 14 -123 16 -137 3 -14 10 -59 16 -100 15 -95 14 -93 22 -105 4 -8
18 -78 22 -120 1 -5 5 -23 8 -40 4 -16 10 -50 14 -75 3 -24 7 -47 9 -50 3 -6
17 -78 18 -97 0 -7 4 -10 7 -8 4 3 10 -14 14 -37 11 -66 49 -222 56 -228 4 -3
19 -54 34 -115 16 -60 32 -113 37 -116 5 -3 11 -14 13 -25 2 -10 12 -46 22
-79 10 -33 18 -62 19 -65 4 -20 19 -56 25 -60 4 -3 20 -43 35 -90 15 -47 31
-87 35 -90 4 -3 22 -44 40 -92 19 -49 37 -88 42 -88 4 0 8 -6 8 -13 0 -7 29
-70 65 -142 36 -71 65 -125 65 -120 0 5 16 -24 36 -65 19 -41 40 -77 45 -81 5
-3 19 -23 30 -45 12 -21 28 -45 37 -51 9 -7 12 -13 8 -13 -4 0 4 -15 18 -33
15 -19 26 -39 26 -45 0 -6 7 -15 15 -19 8 -5 28 -30 45 -56 16 -26 34 -47 40
-47 5 0 10 -6 10 -13 0 -8 9 -22 20 -32 11 -10 20 -22 20 -27 0 -9 20 -32 100
-113 16 -16 29 -33 29 -37 1 -11 36 -45 61 -58 11 -6 18 -14 16 -19 -3 -4 4
-14 15 -22 35 -24 62 -49 54 -49 -4 0 5 -10 21 -22 16 -12 43 -34 59 -49 57
-52 110 -96 147 -121 21 -14 35 -28 31 -31 -3 -4 -1 -7 6 -7 13 0 88 -47 113
-73 10 -9 23 -17 29 -17 6 0 26 -12 45 -26 19 -15 34 -23 34 -20 0 4 9 -2 21
-13 11 -10 40 -26 65 -36 24 -9 42 -21 38 -26 -3 -5 0 -10 5 -10 20 -3 26 -5
46 -16 11 -5 37 -16 58 -22 20 -7 35 -16 33 -20 -3 -4 33 -20 80 -36 46 -16
84 -32 84 -36 0 -3 10 -9 23 -12 58 -14 173 -50 183 -58 7 -6 20 -12 30 -14
86 -18 222 -48 234 -50 8 -2 23 -4 33 -4 10 -1 16 -5 13 -9 -3 -5 1 -9 9 -9 8
0 11 5 8 11 -4 6 0 6 8 -1 15 -12 34 -16 124 -28 28 -4 61 -8 75 -10 104 -16
282 -20 805 -20 593 1 883 8 1110 29 28 3 86 8 130 12 44 3 87 10 96 15 9 4
24 8 35 7 18 -1 108 8 164 17 41 6 101 14 165 21 33 3 62 8 65 9 3 2 25 6 48
10 23 3 60 12 82 20 22 8 43 14 45 14 6 -1 81 11 110 18 11 2 46 9 77 15 31 6
55 15 53 18 -3 4 17 12 43 18 78 17 161 41 190 56 15 7 59 24 97 36 39 13 72
26 75 29 3 4 38 19 78 35 39 15 72 31 72 34 0 4 27 18 61 32 33 14 68 32 78
40 16 14 43 31 86 54 11 6 33 22 48 36 16 14 32 25 35 25 4 0 18 8 32 18 13 9
21 17 16 17 -5 0 10 14 34 31 62 45 198 178 206 201 3 11 8 17 11 14 7 -7 25
12 48 51 10 18 22 30 26 28 4 -3 12 8 18 23 7 16 25 43 41 60 16 18 27 32 25
32 -3 0 7 16 20 36 13 19 27 44 30 55 4 10 10 19 15 19 4 0 20 26 36 57 15 32
31 60 35 63 4 3 22 39 40 80 17 41 35 77 40 80 4 3 20 38 35 78 14 39 30 72
34 72 5 0 14 17 21 38 12 37 61 152 79 184 6 10 10 22 10 27 0 5 4 20 9 33 5
13 8 26 7 30 0 3 9 17 21 30 12 13 32 50 45 83 12 33 28 66 35 73 7 7 13 16
14 20 3 32 52 163 58 157 4 -5 49 111 58 153 3 12 9 22 13 22 7 0 20 26 25 50
7 31 40 119 43 115 3 -3 21 41 39 97 19 56 38 107 44 114 5 7 12 20 14 30 2
11 13 46 25 79 12 33 22 66 22 73 1 6 4 12 8 12 4 0 22 53 40 118 18 64 37
119 41 122 4 3 11 21 14 39 3 19 10 41 14 50 5 9 9 18 9 21 0 23 26 130 32
130 6 0 23 69 36 150 2 14 6 34 9 45 5 25 18 116 18 133 0 6 3 12 7 12 19 0
20 358 1 369 -7 5 -14 19 -15 32 -5 38 -18 80 -32 108 -8 14 -14 32 -14 39 0
6 -4 12 -9 12 -5 0 -14 15 -21 33 -17 44 -44 101 -51 107 -3 3 -21 36 -39 75
-18 38 -39 76 -47 83 -7 8 -20 28 -27 46 -7 17 -20 38 -28 46 -8 8 -29 42 -48
75 -19 33 -42 66 -52 73 -10 7 -16 17 -14 21 3 4 -8 22 -24 40 -17 18 -30 35
-30 37 0 7 -49 71 -78 103 -13 14 -19 27 -13 29 6 2 9 7 7 11 -3 4 12 15 32
24 20 9 57 35 82 57 25 22 48 40 52 40 5 0 29 33 64 92 6 10 13 16 16 13 2 -3
18 20 34 51 16 31 37 71 46 89 10 18 20 46 23 62 31 145 31 174 30 1623 -1
800 -5 1466 -8 1480 -4 14 -9 39 -13 55 -11 60 -37 129 -55 149 -10 10 -16 22
-14 26 4 6 -14 36 -75 125 -18 27 -178 178 -190 181 -17 3 -109 52 -105 56 8
8 -107 42 -185 55 -19 3 -41 11 -49 17 -11 8 -13 8 -7 -1 4 -7 2 -13 -3 -13
-6 0 -11 4 -11 10 0 6 -168 9 -446 10 -300 0 -443 -3 -439 -10 3 -5 1 -10 -4
-10 -6 0 -11 5 -11 10 0 6 -5 10 -11 10 -5 0 -7 -4 -4 -10 3 -5 -4 -11 -17
-11 -47 -3 -65 -7 -136 -29 -39 -12 -72 -26 -72 -30 0 -4 -18 -15 -40 -24 -22
-9 -49 -25 -60 -36 l-20 -20 -1 28 c-1 15 0 37 1 50 1 12 -2 22 -7 22 -5 0
-10 14 -11 31 -2 26 -20 99 -49 201 -3 10 -9 15 -14 12 -5 -3 -9 1 -9 9 0 19
-40 96 -70 136 -46 60 -135 151 -147 151 -7 0 -17 9 -23 20 -6 11 -30 30 -53
41 -23 12 -45 27 -49 33 -4 6 -11 11 -15 12 -4 0 -25 8 -47 17 -21 9 -44 17
-52 17 -7 0 -19 6 -26 13 -7 8 -20 14 -28 15 -8 0 -44 8 -80 16 -89 20 -899
21 -1005 1z m1002 -360 c34 -10 60 -21 58 -25 -2 -4 13 -14 34 -23 62 -28 149
-121 183 -197 12 -25 24 -47 28 -50 27 -19 29 -152 27 -1835 l-2 -1730 -29
-50 c-15 -27 -33 -56 -39 -64 -9 -11 -102 -13 -522 -11 -520 3 -606 0 -633
-22 -13 -11 -14 -11 -8 0 6 11 4 11 -10 3 -11 -6 -66 -19 -124 -30 -104 -19
-105 -19 -132 1 -16 11 -28 23 -28 26 0 4 -14 22 -30 41 -28 30 -76 111 -66
111 2 0 -2 21 -10 46 -7 26 -11 51 -7 57 3 6 1 7 -6 3 -8 -6 -11 385 -9 1638
2 905 -1 1646 -5 1646 -12 0 0 111 13 124 5 5 10 16 10 22 0 7 5 25 12 41 6
15 11 31 10 34 -1 4 11 20 26 38 15 17 38 46 52 66 14 19 31 35 39 35 8 0 11
3 8 7 -7 7 55 53 71 53 5 0 15 7 22 15 11 13 87 39 140 47 14 2 214 4 445 3
377 -1 426 -3 482 -20z m-2059 -440 c28 -4 52 -11 52 -16 0 -5 7 -9 15 -9 27
0 126 -52 136 -72 6 -11 13 -17 16 -14 7 7 58 -42 58 -57 1 -6 6 -11 12 -10
12 3 73 -116 73 -141 0 -8 4 -17 9 -20 5 -4 12 -25 16 -47 8 -45 9 -2791 1
-2824 -2 -11 -5 -26 -5 -33 -1 -7 -5 -10 -11 -7 -5 3 -10 -1 -10 -10 0 -23
-53 -115 -66 -115 -5 0 -25 -14 -42 -31 -18 -17 -32 -29 -32 -26 0 3 -17 -1
-37 -10 -34 -15 -100 -17 -562 -18 -516 -2 -530 -1 -646 28 -20 6 -109 73
-142 108 -38 40 -68 96 -78 140 -4 16 -10 27 -14 25 -4 -3 -9 7 -11 22 -6 34
-6 2728 0 2764 2 15 7 25 11 22 4 -2 9 11 13 29 9 46 56 138 67 132 5 -4 9 -1
9 5 0 25 100 111 157 136 32 14 66 30 76 35 11 6 40 13 65 16 26 3 48 6 49 7
5 4 778 -4 821 -9z m4030 -232 c2 -7 12 -13 22 -13 26 0 112 -40 137 -64 12
-12 33 -30 47 -41 14 -11 26 -24 26 -28 0 -5 14 -22 30 -39 17 -17 28 -33 26
-36 -3 -3 -2 -10 2 -16 5 -6 19 -40 32 -76 l24 -65 0 -1420 c-1 -781 -2 -1437
-4 -1457 -2 -21 -8 -38 -12 -38 -4 0 -8 -6 -8 -12 0 -47 -114 -208 -146 -208
-6 0 -20 -9 -32 -20 -45 -42 -110 -52 -140 -22 -11 11 -45 32 -78 48 -32 16
-62 32 -65 37 -3 4 -43 21 -90 37 -46 16 -79 29 -74 30 11 1 -67 27 -103 34
-12 3 -30 7 -40 10 -9 3 -30 7 -46 10 -16 3 -33 11 -37 18 -6 10 -89 14 -374
16 -272 3 -365 6 -366 15 0 7 -4 26 -7 42 -4 17 -7 685 -7 1485 l0 1455 22 59
c22 57 30 68 95 134 59 58 72 68 128 91 30 12 64 26 75 31 39 17 64 18 509 17
349 -2 450 -5 454 -14z m-5975 -927 c20 -5 37 -12 37 -16 0 -4 18 -13 40 -20
23 -7 56 -28 75 -46 19 -18 38 -34 42 -36 11 -4 86 -105 84 -112 -1 -3 5 -19
14 -36 8 -16 15 -41 15 -55 0 -15 4 -24 10 -20 7 4 10 -343 10 -1035 0 -947
-1 -1043 -16 -1066 -9 -13 -14 -27 -11 -30 6 -6 -41 -101 -49 -96 -2 1 -19
-13 -37 -31 -71 -74 -58 -72 -577 -72 l-465 0 -50 24 c-27 13 -54 23 -60 22
-5 -2 -7 0 -4 4 4 3 -13 25 -38 48 -32 31 -50 60 -68 110 l-25 68 3 1037 2
1037 22 59 c12 32 29 66 36 75 38 43 139 140 145 139 9 -2 65 24 72 34 13 18
129 24 430 23 179 -1 342 -5 363 -9z m2494 -2557 c20 -37 20 -38 2 -44 -10 -4
-19 -11 -19 -16 0 -5 -6 -9 -14 -9 -8 0 -44 -13 -81 -30 -37 -16 -73 -30 -81
-30 -8 0 -14 -5 -14 -10 0 -11 -109 -64 -125 -61 -5 2 -6 -1 -2 -5 4 -4 -16
-23 -45 -41 -29 -18 -48 -33 -43 -33 5 0 -4 -10 -20 -22 -16 -13 -43 -38 -61
-55 -18 -18 -36 -33 -40 -33 -8 0 -22 -13 -111 -101 -24 -23 -43 -39 -43 -36
0 4 -18 -10 -39 -30 -63 -60 -115 -106 -143 -127 -15 -11 -25 -23 -22 -28 3
-4 -1 -8 -9 -8 -8 0 -21 -7 -28 -17 -8 -9 -27 -24 -44 -35 -16 -10 -26 -18
-22 -18 4 0 -8 -13 -26 -30 -19 -16 -40 -30 -46 -30 -7 0 -9 -4 -6 -10 3 -5 3
-10 -2 -10 -4 0 -30 -20 -58 -45 -27 -25 -70 -62 -94 -82 -23 -21 -61 -56 -82
-77 -21 -22 -39 -36 -39 -31 0 4 -20 -12 -45 -36 -24 -24 -61 -59 -82 -76 -21
-18 -52 -45 -69 -60 -128 -114 -167 -148 -173 -148 -15 -1 -141 -143 -141
-159 0 -3 -11 -17 -25 -32 -13 -14 -24 -29 -23 -33 1 -3 -4 -19 -10 -34 -7
-16 -12 -33 -12 -38 0 -6 -4 -8 -8 -5 -9 5 -36 -93 -50 -179 -9 -56 -8 -184 1
-230 24 -113 42 -174 49 -163 6 10 8 9 8 -2 0 -19 44 -113 64 -137 8 -10 44
-48 79 -85 35 -37 62 -69 61 -71 -2 -2 26 -19 61 -38 36 -19 65 -37 65 -40 0
-4 21 -15 48 -25 47 -18 53 -20 71 -23 5 0 16 -7 23 -14 15 -15 168 -73 181
-69 5 1 6 -1 3 -6 -3 -5 36 -22 87 -37 51 -15 97 -32 103 -36 16 -13 260 -71
301 -72 7 0 10 -4 8 -8 -3 -3 21 -10 52 -14 32 -4 66 -9 76 -10 147 -29 590
-20 692 13 3 1 14 2 26 2 11 0 17 5 14 10 -3 6 3 10 15 10 38 0 263 67 235 70
-11 1 57 28 90 35 11 3 31 13 45 23 14 10 50 30 82 45 31 15 58 30 60 34 1 5
31 22 65 39 34 18 60 34 57 36 -2 3 27 20 65 39 38 19 67 37 64 42 -2 4 1 7 7
7 7 0 24 9 38 19 15 10 32 19 37 20 6 0 17 7 26 14 9 8 40 27 70 43 30 16 56
33 57 37 2 4 27 19 55 34 29 14 57 33 64 42 7 9 13 12 13 8 0 -4 17 4 37 18
21 14 43 25 50 25 7 0 16 6 20 14 4 8 36 28 70 44 34 16 60 32 57 34 -2 3 22
18 55 33 33 16 58 32 56 35 -2 3 20 17 48 30 58 26 121 80 143 122 17 33 18
101 2 131 -6 12 -24 35 -39 52 -16 16 -29 33 -29 37 0 6 -66 21 -100 23 -25 2
-100 -26 -95 -35 3 -4 -10 -13 -28 -20 -17 -7 -46 -23 -63 -36 -17 -12 -57
-36 -90 -53 -32 -17 -54 -31 -49 -31 9 -1 -103 -63 -116 -65 -3 0 -14 -8 -24
-19 -10 -10 -38 -26 -61 -36 -23 -10 -43 -22 -45 -27 -2 -4 -30 -21 -61 -38
-32 -16 -58 -33 -58 -36 0 -4 -20 -16 -44 -27 -24 -12 -50 -27 -57 -34 -8 -7
-40 -26 -72 -43 -31 -16 -57 -33 -57 -36 0 -3 -30 -21 -67 -39 -38 -18 -71
-38 -74 -43 -8 -12 -81 -54 -171 -100 -37 -19 -65 -37 -62 -40 3 -3 -33 -18
-80 -33 -47 -15 -83 -30 -80 -33 5 -6 -71 -27 -131 -36 -22 -4 -42 -8 -46 -11
-46 -28 -480 -25 -634 5 -27 5 -70 12 -94 16 -23 3 -53 10 -66 15 -13 5 -26 7
-29 4 -3 -2 -3 -1 0 3 5 7 -124 46 -198 60 -15 3 -26 8 -23 12 2 4 -36 20 -85
35 -49 15 -90 32 -92 37 -2 6 -10 11 -18 13 -38 6 -139 50 -134 57 3 5 -2 9
-10 9 -38 0 -176 113 -176 144 0 5 -6 17 -13 25 -17 20 -37 89 -37 125 0 14
-5 26 -12 26 -9 0 -9 3 0 12 7 7 12 17 12 22 0 6 -5 4 -10 -4 -8 -13 -10 -13
-10 2 0 9 4 19 9 22 4 3 10 27 13 53 5 49 55 176 67 169 4 -3 15 7 25 22 10
15 36 38 57 52 21 13 39 28 39 32 0 4 8 8 18 8 14 0 15 2 2 10 -12 8 -12 10
-1 10 7 0 30 17 51 38 21 20 65 61 99 91 33 29 81 73 106 97 25 25 45 42 45
39 0 -2 28 23 63 56 117 114 145 141 150 141 3 0 39 32 80 71 41 40 110 104
152 142 42 39 100 91 127 118 28 26 55 47 60 47 5 0 6 5 3 10 -3 6 2 13 12 16
10 4 36 24 58 45 64 63 175 166 175 163 0 -2 18 15 40 36 23 22 43 40 45 40 8
0 140 64 145 71 3 3 32 16 65 29 60 22 77 27 105 30 13 1 13 2 0 8 -9 3 2 10
30 18 25 7 69 19 99 28 30 8 58 21 62 28 7 10 9 10 9 -2 0 -12 2 -12 9 -2 4 7
17 15 27 17 10 2 19 4 19 5 0 1 9 3 20 5 11 1 40 7 65 13 25 6 61 14 80 17 19
3 39 10 45 14 5 5 30 12 55 15 53 9 2108 8 2162 -1 21 -3 36 -9 33 -13 -3 -4
12 -11 33 -14 60 -11 172 -48 172 -57 0 -5 6 -9 14 -9 21 0 136 -50 171 -75
17 -12 42 -27 56 -34 15 -7 32 -24 39 -37 7 -13 16 -21 21 -19 4 3 18 -12 30
-32 27 -45 45 -64 51 -57 3 2 11 -9 18 -26 7 -17 22 -39 34 -48 25 -21 66 -77
66 -91 0 -6 8 -15 18 -20 10 -5 29 -31 42 -56 13 -26 30 -49 37 -52 6 -3 23
-27 38 -54 14 -27 34 -58 45 -69 11 -11 20 -26 20 -33 0 -8 14 -33 31 -57 18
-24 43 -69 56 -99 14 -31 28 -58 32 -61 10 -7 37 -68 53 -117 7 -24 16 -43 19
-43 27 0 43 -180 26 -287 -4 -24 -10 -62 -13 -85 -4 -24 -9 -45 -13 -48 -5 -4
-38 -136 -57 -230 -3 -13 -9 -27 -13 -30 -6 -4 -42 -124 -57 -190 -3 -13 -9
-27 -13 -30 -4 -3 -22 -52 -40 -110 -17 -57 -35 -106 -39 -110 -8 -5 -63 -157
-64 -177 -1 -7 -5 -13 -9 -13 -4 0 -22 -43 -39 -95 -17 -52 -35 -95 -38 -95
-6 0 -23 -42 -37 -90 -10 -37 -31 -86 -41 -97 -6 -6 -22 -44 -34 -82 -13 -39
-27 -71 -30 -71 -4 0 -17 -28 -30 -62 -12 -35 -35 -90 -50 -123 -15 -33 -36
-80 -46 -105 -10 -25 -22 -48 -26 -51 -9 -6 -46 -100 -53 -133 -3 -11 -9 -22
-15 -26 -6 -4 -14 -20 -19 -36 -22 -68 -52 -139 -61 -142 -6 -2 -10 -10 -10
-18 0 -8 -4 -22 -10 -32 -5 -9 -18 -37 -30 -62 -44 -96 -97 -190 -103 -183 -4
3 -7 -1 -7 -9 0 -8 -9 -27 -20 -40 -10 -14 -17 -27 -15 -30 2 -2 -9 -19 -25
-37 -17 -18 -30 -36 -30 -41 0 -5 -11 -20 -24 -33 -13 -13 -36 -41 -52 -63
-46 -62 -214 -218 -256 -236 -15 -7 -25 -15 -23 -19 3 -3 -18 -18 -45 -33 -28
-15 -50 -30 -50 -34 0 -8 -101 -58 -111 -55 -3 1 -18 -9 -34 -23 -15 -13 -36
-24 -46 -24 -10 0 -20 -4 -23 -9 -3 -4 -26 -14 -51 -21 -24 -7 -42 -16 -39
-21 3 -5 2 -9 -3 -10 -19 -2 -41 -8 -102 -28 -35 -11 -70 -21 -77 -21 -7 0
-14 -4 -16 -9 -3 -8 -202 -61 -232 -61 -9 0 -16 -4 -16 -9 0 -5 -21 -12 -47
-15 -27 -4 -55 -9 -63 -11 -8 -1 -33 -6 -54 -9 -21 -4 -48 -8 -60 -11 -26 -5
-71 -12 -153 -21 -35 -3 -63 -10 -63 -15 0 -4 -8 -8 -17 -7 -10 0 -38 -2 -63
-5 -165 -20 -597 -51 -685 -49 -30 1 -36 -2 -25 -10 12 -8 12 -9 -3 -4 -9 3
-25 9 -35 12 -14 5 -15 4 -2 -5 18 -13 -68 -14 -734 -13 -296 0 -452 4 -459
11 -7 7 -16 7 -30 0 -13 -8 -17 -8 -13 -1 4 6 -1 10 -11 10 -20 -1 -187 12
-212 17 -9 1 -41 6 -71 10 -30 4 -62 9 -70 10 -8 2 -37 6 -63 9 -27 4 -56 11
-65 16 -9 6 -80 26 -157 45 -77 18 -131 35 -120 36 l20 1 -20 5 c-46 10 -180
57 -185 64 -3 4 -38 21 -78 37 -39 16 -70 31 -67 34 3 3 -15 13 -40 22 -25 10
-67 32 -93 50 -26 18 -54 35 -63 38 -8 3 -42 26 -74 50 -32 23 -61 43 -64 43
-3 0 -16 10 -28 22 -12 12 -36 29 -53 38 -17 9 -29 19 -26 23 2 4 -12 19 -32
32 -20 14 -89 79 -154 145 -169 173 -170 174 -188 203 -10 15 -31 42 -47 61
-17 18 -37 45 -44 59 -8 14 -23 35 -34 47 -11 12 -29 37 -40 55 -11 19 -30 50
-43 70 -12 19 -27 47 -33 62 -6 16 -14 26 -18 23 -4 -2 -21 25 -37 60 -15 36
-31 65 -35 65 -5 0 -32 47 -33 60 -2 13 -41 95 -48 100 -9 7 -48 98 -54 124
-2 11 -8 22 -14 26 -5 3 -22 40 -36 81 -14 40 -29 76 -34 79 -4 3 -22 52 -40
110 -18 58 -36 107 -40 110 -6 4 -22 58 -50 168 -4 18 -13 38 -18 45 -9 10
-45 158 -59 240 -3 15 -9 27 -13 27 -4 0 -10 15 -14 33 -3 17 -10 55 -16 82
-6 28 -13 64 -15 80 -3 17 -11 55 -17 85 -6 30 -11 64 -9 75 1 15 0 17 -7 7
-6 -9 -12 5 -16 45 -4 32 -9 67 -11 78 -2 11 -6 38 -10 60 -3 22 -7 50 -9 62
-3 12 -8 50 -11 85 -4 34 -10 65 -13 68 -4 3 -8 14 -8 25 -2 23 -12 106 -19
150 -3 17 -7 66 -10 110 -3 44 -8 91 -10 105 -4 22 -8 74 -21 255 -2 28 -4 70
-5 94 -1 30 -4 39 -11 30 -8 -11 -8 -10 -4 4 3 9 9 25 12 35 5 14 4 14 -5 2
-8 -11 -10 -7 -9 20 0 19 -2 112 -6 205 -4 94 -9 252 -10 352 -3 204 -8 194
64 123 52 -51 103 -90 116 -90 6 0 22 -8 35 -19 20 -15 59 -32 114 -48 64 -19
177 -24 560 -24 405 0 476 2 544 16 49 9 129 35 133 43 2 4 28 20 58 36 30 17
63 40 74 53 10 13 21 22 23 19 3 -3 21 15 40 39 19 25 37 45 41 45 4 0 21 26
37 57 17 32 35 62 42 68 6 5 19 38 28 71 18 64 32 74 57 41 14 -17 100 -57
124 -57 9 0 13 -4 10 -9 -3 -4 29 -17 72 -27 71 -17 121 -19 637 -19 308 0
579 3 603 7 72 12 124 29 139 44 8 8 20 14 27 14 18 0 79 33 102 56 30 30 48
26 71 -17z"/>
</g>
</svg>
